<?xml version="1.0" standalone="no"?>
<!DOCTYPE svg PUBLIC "-//W3C//DTD SVG 1.1//EN" "http://www.w3.org/Graphics/SVG/1.1/DTD/svg11.dtd" >
<svg xmlns="http://www.w3.org/2000/svg">
<metadata>Generated by IcoMoon</metadata>
<defs>
<font id="icomoon" horiz-adv-x="1024">
<font-face units-per-em="1024" ascent="960" descent="-64" />
<missing-glyph horiz-adv-x="1024" />
<glyph unicode="&#x20;" horiz-adv-x="512" d="" />
<glyph unicode="&#xe900;" glyph-name="clock" d="M512 891.136c-244.62-0.291-442.845-198.516-443.136-443.108v-0.028c0.255-244.634 198.501-442.881 443.111-443.136h0.025c244.634 0.255 442.881 198.501 443.136 443.111v0.025c-0.255 244.634-198.501 442.881-443.111 443.136h-0.025zM512 65.92c-210.929 0.218-381.862 171.151-382.080 382.059v0.021c0.291 210.874 171.196 381.734 382.060 381.952h0.020c210.884-0.218 381.789-171.078 382.080-381.925v-0.027c-0.255-210.902-171.173-381.798-382.059-382.016h-0.021zM526.080 462.336v234.432c-0.793 17.324-15.031 31.070-32.48 31.070s-31.687-13.745-32.477-30.999l-0.003-0.071v-266.88c0-17.984 14.528-32.576 32.512-32.576h270.848c17.956 0 32.512 14.556 32.512 32.512s-14.556 32.512-32.512 32.512v0h-238.4z" />
<glyph unicode="&#xe901;" glyph-name="phone" d="M759.369-30.72c67.511 12.507 125.733 47.031 173.934 99.328 12.434 14.702 26.697 27.136 38.619 40.667 27.209 31.305 29.184 65.609 4.242 96.329-11.835 15.288-24.982 28.644-39.543 40.307l-0.466 0.361c-31.159 23.406-62.391 46.665-94.647 67.584-14.994 9.947-33.426 15.579-51.2 19.529-34.45 7.241-64.731-6.51-88.503-33.573l-51.127-55.369c-24.43-28.233-51.858-35.986-85.138-26.331-36.279 9.582-65.682 30.647-93.989 54.126-53.812 43.836-100.42 93.465-139.824 148.595l-1.561 2.298c-18.505 26.258-33.719 53.833-38.034 86.674-4.901 28.672 5.266 53.321 26.843 72.558 19.895 18.578 39.79 37.23 58.514 56.32 33.499 35.767 40.521 74.971 21.797 118.93-9.248 21.21-19.398 39.349-31.086 56.349l0.732-1.126c-23.401 33.265-45.13 61.497-67.926 88.807l1.732-2.133c-8.222 9.232-17.335 17.369-27.294 24.388l-0.501 0.335c-27.575 18.725-56.247 17.481-80.677-4.827-32.914-31.598-68.169-62.098-93.111-100.425-30.488-44.96-50.281-99.446-54.575-158.235l-0.063-1.070c-5.559-81.042 14.117-156.233 48.567-226.597 29.842-62.318 68.754-117.175 112.859-169.984 69.559-82.359 145.92-156.087 234.789-215.113 54.857-35.84 113.006-64.439 176.786-78.043 13.824-3.511 28.745-4.608 41.399-7.534 12.654 0 22.382-0.146 32.183-0.293 22.309 2.779 44.617 2.633 66.341 7.168z" />
<glyph unicode="&#xe902;" glyph-name="bathroom" horiz-adv-x="1385" d="M1327.706 642.56h-1125.677v144.203c0 67.223 47.586 93.786 86.618 93.786 51.802 0 93.786-41.984 93.786-93.786h79.39c0 95.643-77.534 173.176-173.176 173.176s-173.176-77.534-173.176-173.176v0-144.324h-57.766c-31.849 0-57.671-25.801-57.705-57.642v-28.916h1385.412v28.913c0 31.925-25.901 57.705-57.705 57.705zM57.705 382.705c0-107.159 58.549-200.463 145.227-250.278l-73.728-73.728c-7.331-8.249-11.81-19.176-11.81-31.149 0-25.948 21.035-46.984 46.984-46.984 11.943 0 22.845 4.456 31.135 11.796l-0.049-0.043 105.713 105.713c14.758-2.409 29.816-3.915 45.237-3.915h692.706c15.42 0 30.479 1.566 45.176 3.915l105.653-105.653c8.469-8.523 20.198-13.798 33.16-13.798s24.69 5.275 33.157 13.796l0.002 0.002c8.483 8.499 13.728 20.232 13.728 33.19s-5.246 24.691-13.729 33.19l-73.727 73.727c87.353 50.636 145.167 143.692 145.167 250.252 0 0.009 0 0.018 0 0.028v-0.001 115.411h-1269.941v-115.411z" />
<glyph unicode="&#xe903;" glyph-name="bedroom" horiz-adv-x="1472" d="M306.688 776c-67.759 0-122.688-54.929-122.688-122.688s54.929-122.688 122.688-122.688v0c67.759 0 122.688 54.929 122.688 122.688s-54.929 122.688-122.688 122.688v0zM1426.048 469.312h-76.736v-490.624h122.688v444.672c-0.036 25.386-20.625 45.952-46.016 45.952 0 0 0 0 0 0v0zM1195.968 714.688h-705.216v-552h797.312v459.968c0 50.816-41.216 92.032-92.032 92.032zM122.752 898.688c0 33.897-27.479 61.376-61.376 61.376s-61.376-27.479-61.376-61.376v0-920h122.688v245.312h306.624v245.312h-306.624v429.376z" />
<glyph unicode="&#xe904;" glyph-name="quote" horiz-adv-x="1365" d="M614.4 408.61v-354.441c0-65.263-63.488-118.17-141.79-118.17h-330.82c-78.302 0-141.79 52.907-141.79 118.17v512c0 104.448 49.801 204.595 138.411 278.528 88.678 73.796 208.862 115.302 334.199 115.302 52.224 0 94.549-35.294 94.549-78.78-1.126-43.52-43.588-78.404-95.778-78.746-75.025-0.273-146.807-25.293-199.748-69.632-52.873-44.237-82.603-104.175-82.603-166.673v-39.39h283.58c78.268 0 141.79-52.907 141.79-118.17zM1223.543 526.78h-283.58v39.39c0 62.498 29.73 122.436 82.603 166.707 52.907 44.305 124.723 69.325 199.748 69.598 52.19 0.341 94.652 35.226 95.744 78.746 0 43.486-42.325 78.78-94.515 78.78-125.338 0-245.521-41.472-334.199-115.337-88.61-73.899-138.411-174.080-138.411-278.528v-512c0-65.161 63.488-118.135 141.79-118.135h330.82c78.302 0 141.79 52.907 141.79 118.17v354.441c0 65.229-63.488 118.17-141.79 118.17z" />
<glyph unicode="&#xe905;" glyph-name="chevrons-right" d="M797.867 456.534l-213.333 213.333c-17.067 17.067-42.667 17.067-59.733 0s-17.067-42.667 0-59.733l183.467-183.467-183.467-183.467c-17.067-17.067-17.067-42.667 0-59.733 8.533-8.533 21.333-12.8 29.867-12.8s21.333 4.267 29.867 12.8l213.333 213.333c17.067 17.067 17.067 42.667 0 59.733zM499.2 456.534l-213.333 213.333c-17.067 17.067-42.667 17.067-59.733 0s-17.067-42.667 0-59.733l183.467-183.467-183.467-183.467c-17.067-17.067-17.067-42.667 0-59.733 8.533-8.533 17.067-12.8 29.867-12.8s21.333 4.267 29.867 12.8l213.333 213.333c17.067 17.067 17.067 42.667 0 59.733z" />
<glyph unicode="&#xe906;" glyph-name="list-2" d="M326.298 807.168h631.194c28.277 0 51.2 22.923 51.2 51.2v0 50.432c0 28.277-22.923 51.2-51.2 51.2v0h-631.194c-28.277 0-51.2-22.923-51.2-51.2v0-50.432c0-28.277 22.923-51.2 51.2-51.2v0zM326.298 516.762h631.194c28.277 0 51.2 22.923 51.2 51.2v0 50.432c0 28.277-22.923 51.2-51.2 51.2v0h-631.194c-28.277 0-51.2-22.923-51.2-51.2v0-50.432c0-28.277 22.923-51.2 51.2-51.2v0zM326.298 226.406h631.194c28.277 0 51.2 22.923 51.2 51.2v0 50.432c0 28.277-22.923 51.2-51.2 51.2v0h-631.194c-28.277 0-51.2-22.923-51.2-51.2v0-50.432c0-28.277 22.923-51.2 51.2-51.2v0zM326.298-64h631.194c28.277 0 51.2 22.923 51.2 51.2v0 50.432c0 28.277-22.923 51.2-51.2 51.2v0h-631.194c-28.277 0-51.2-22.923-51.2-51.2v0-50.432c0-28.277 22.923-51.2 51.2-51.2v0zM51.2 807.168h50.432c28.277 0 51.2 22.923 51.2 51.2v0 50.432c0 28.277-22.923 51.2-51.2 51.2v0h-50.432c-28.277 0-51.2-22.923-51.2-51.2v0-50.432c0-28.277 22.923-51.2 51.2-51.2v0zM51.2 516.762h50.432c28.277 0 51.2 22.923 51.2 51.2v0 50.432c0 28.277-22.923 51.2-51.2 51.2v0h-50.432c-28.277 0-51.2-22.923-51.2-51.2v0-50.432c0-28.277 22.923-51.2 51.2-51.2v0zM51.2 226.406h50.432c28.277 0 51.2 22.923 51.2 51.2v0 50.432c0 28.277-22.923 51.2-51.2 51.2v0h-50.432c-28.277 0-51.2-22.923-51.2-51.2v0-50.432c0-28.277 22.923-51.2 51.2-51.2v0zM51.2-64h50.432c28.277 0 51.2 22.923 51.2 51.2v0 50.432c0 28.277-22.923 51.2-51.2 51.2v0h-50.432c-28.277 0-51.2-22.923-51.2-51.2v0-50.432c0-28.277 22.923-51.2 51.2-51.2v0z" />
<glyph unicode="&#xe907;" glyph-name="list-1" d="M273.101 756.122c0-38.246-30.976-69.222-69.222-69.222h-134.656c-0.015 0-0.033 0-0.051 0-38.202 0-69.171 30.969-69.171 69.171 0 0.018 0 0.036 0 0.054v-0.003 134.656c0 38.246 30.976 69.222 69.222 69.222h134.656c38.246 0 69.222-30.976 69.222-69.222v-134.656zM273.101 380.621c0 0 0 0 0 0 0-38.174-30.946-69.12-69.12-69.12-0.036 0-0.072 0-0.108 0h-134.651c-0.030 0-0.066 0-0.102 0-38.174 0-69.12 30.946-69.12 69.12v0 134.656c0 38.298 30.976 69.222 69.222 69.222h134.656c0.030 0 0.066 0 0.102 0 38.174 0 69.12-30.946 69.12-69.12v0-134.758zM273.101 5.222c0-38.246-30.976-69.222-69.222-69.222h-134.656c-0.015 0-0.033 0-0.051 0-38.202 0-69.171 30.969-69.171 69.171 0 0.018 0 0.036 0 0.054v-0.003 134.656c0 38.246 30.976 69.222 69.222 69.222h134.656c38.246 0 69.222-30.976 69.222-69.222v-134.656zM648.499 756.122c0-0.030 0-0.066 0-0.102 0-38.174-30.946-69.12-69.12-69.12h-134.656c-0.015 0-0.033 0-0.051 0-38.202 0-69.171 30.969-69.171 69.171 0 0.018 0 0.036 0 0.054v-0.003 134.656c0 0.030 0 0.066 0 0.102 0 38.174 30.946 69.12 69.12 69.12h134.656c38.298 0 69.222-30.976 69.222-69.222v-134.656zM648.499 380.621c0-38.174-30.946-69.12-69.12-69.12v0h-134.656c-0.030 0-0.066 0-0.102 0-38.174 0-69.12 30.946-69.12 69.12v0 134.656c0 0.030 0 0.066 0 0.102 0 38.174 30.946 69.12 69.12 69.12h134.656c0.030 0 0.066 0 0.102 0 38.174 0 69.12-30.946 69.12-69.12v0-134.758zM648.499 5.222c0-0.030 0-0.066 0-0.102 0-38.174-30.946-69.12-69.12-69.12h-134.656c-0.015 0-0.033 0-0.051 0-38.202 0-69.171 30.969-69.171 69.171 0 0.018 0 0.036 0 0.054v-0.003 134.656c0 38.246 30.925 69.222 69.12 69.222h134.656c38.298 0 69.222-30.976 69.222-69.222v-134.656zM1024 756.122c0-38.246-30.976-69.222-69.222-69.222h-134.656c-0.015 0-0.033 0-0.051 0-38.202 0-69.171 30.969-69.171 69.171 0 0.018 0 0.036 0 0.054v-0.003 134.656c0 38.246 30.976 69.222 69.222 69.222h134.656c38.246 0 69.222-30.976 69.222-69.222v-134.656zM1024 380.621c0 0 0 0 0 0 0-38.174-30.946-69.12-69.12-69.12-0.036 0-0.072 0-0.108 0h-134.651c-0.015 0-0.033 0-0.051 0-38.184 0-69.142 30.94-69.171 69.117v134.659c0 38.298 30.976 69.222 69.222 69.222h134.656c38.246 0 69.222-30.925 69.222-69.12v-134.758zM1024 5.222c0-38.246-30.976-69.222-69.222-69.222h-134.656c-0.015 0-0.033 0-0.051 0-38.202 0-69.171 30.969-69.171 69.171 0 0.018 0 0.036 0 0.054v-0.003 134.656c0 38.246 30.976 69.222 69.222 69.222h134.656c38.246 0 69.222-30.976 69.222-69.222v-134.656z" />
<glyph unicode="&#xe908;" glyph-name="team-1" d="M515.27 719.267c165.585 0 300.323-134.726 300.323-300.451 0-100.957-49.955-190.639-126.732-245.050v-117.865c0-0.021 0-0.047 0-0.072 0-6.404-2.607-12.198-6.818-16.38l-0.001-0.001c-4.183-4.212-9.978-6.819-16.382-6.819-0.025 0-0.051 0-0.076 0h-73.41v-71.319c0-0.023 0-0.050 0-0.077 0-6.402-2.607-12.195-6.818-16.375l-0.001-0.001c-4.183-4.212-9.978-6.819-16.382-6.819-0.025 0-0.051 0-0.076 0h-107.4c-0.023 0-0.050 0-0.077 0-6.402 0-12.195 2.607-16.375 6.818l-0.001 0.001c-4.212 4.183-6.819 9.978-6.819 16.382 0 0.025 0 0.051 0 0.076v-0.004 71.319h-73.309c-0.026 0-0.057 0-0.089 0-6.402 0-12.195 2.607-16.375 6.818l-0.001 0.001c-4.212 4.183-6.819 9.978-6.819 16.382 0 0.025 0 0.051 0 0.076v-0.004 117.865c-76.777 54.412-126.813 144.093-126.813 245.050 0 165.725 134.865 300.451 300.451 300.451zM515.27 672.721c-140.451 0-253.905-113.361-253.905-253.905 0-89.495 46.278-168.006 116.177-213.178 3.235-2.095 5.958-5.004 7.82-8.413s2.816-7.273 2.816-11.136v-106.95h73.321c0.023 0 0.050 0 0.077 0 6.402 0 12.195-2.607 16.375-6.818l0.001-0.001c4.212-4.183 6.819-9.978 6.819-16.382 0-0.025 0-0.051 0-0.076v0.004-71.319h60.858v71.319c0 0.019 0 0.043 0 0.066 0 6.408 2.612 12.205 6.829 16.387l0.002 0.002c4.183 4.212 9.978 6.819 16.382 6.819 0.025 0 0.051 0 0.076 0h73.398v106.95c0 0.024 0 0.053 0 0.082 0 8.134 4.198 15.288 10.546 19.412l0.090 0.055c69.911 45.184 116.096 123.683 116.096 213.178 0 140.591-113.361 253.905-253.777 253.905zM515.596 957.999c3.049-0.047 6.086-0.675 8.867-1.908 2.769-1.222 5.353-2.956 7.447-5.132 4.082-4.156 6.601-9.858 6.601-16.148 0-0.14-0.001-0.28-0.004-0.42v0.021-111.732c0.047-3.084-0.547-6.132-1.687-8.995-1.205-2.98-2.911-5.523-5.038-7.645v0c-4.221-4.272-10.072-6.925-16.543-6.947h-0.004c0 0 0 0 0 0-6.479 0-12.337 2.658-16.543 6.943l-0.003 0.004c-2.089 2.147-3.793 4.682-4.989 7.485l-0.061 0.16c-1.061 2.578-1.677 5.572-1.677 8.709 0 0.101 0.001 0.201 0.002 0.301v-0.015 111.732c-0.002 0.098-0.002 0.214-0.002 0.331 0 3.158 0.634 6.168 1.781 8.91l-0.057-0.152c1.245 2.986 2.967 5.537 5.098 7.681l-0.001-0.001c2.176 2.188 4.817 3.956 7.727 5.097 2.863 1.175 5.993 1.722 9.088 1.676v0.047zM227.363 838.633c3.002-0.093 5.958-0.768 8.681-2.001 2.723-1.222 5.236-2.956 7.273-5.132l78.545-79.36c2.188-2.141 3.956-4.736 5.178-7.599 1.187-2.816 1.827-5.911 1.862-8.995 0-0.018 0-0.040 0-0.061 0-6.48-2.638-12.345-6.899-16.577l-0.001-0.001c-2.134-2.131-4.688-3.841-7.527-4.995l-0.153-0.055c-2.592-1.061-5.6-1.678-8.752-1.678-0.106 0-0.212 0.001-0.317 0.002h0.016c-6.491 0.138-12.316 2.879-16.493 7.219l-0.007 0.007-78.545 79.36c-4.318 4.212-6.995 10.088-6.995 16.589 0 3.321 0.699 6.478 1.957 9.334l-0.058-0.148c3.644 8.339 11.821 14.061 21.334 14.061 0.301 0 0.601-0.006 0.9-0.017l-0.043 0.001 0.047 0.047zM57.588 652.858c0.21 0.007 0.458 0.011 0.706 0.011 4.419 0 8.553-1.219 12.084-3.34l-0.106 0.059 96.815-55.866c7.185-4.036 11.961-11.609 11.961-20.297 0-4.294-1.166-8.315-3.199-11.764l0.059 0.108c-1.548-2.676-3.596-5.004-6.051-6.865-2.444-1.862-5.271-3.223-8.227-4.003-1.739-0.473-3.735-0.745-5.795-0.745-1.178 0-2.336 0.089-3.466 0.26l0.127-0.016c-3.24 0.452-6.157 1.527-8.733 3.105l0.099-0.056-96.815 55.855c-4.423 2.53-7.882 6.311-9.947 10.859l-0.060 0.149c-1.215 2.756-1.922 5.969-1.922 9.347 0 1.943 0.234 3.832 0.675 5.64l-0.033-0.162c1.288 5.089 4.106 9.392 7.929 12.511l0.042 0.033c3.774 3.083 8.599 5.009 13.869 5.177l-0.010 0.001zM135.005 399.139c3.095 0 6.132-0.547 8.995-1.687 8.608-3.555 14.562-11.871 14.592-21.582v-0.004c0 0 0 0 0 0 0-6.479-2.658-12.337-6.943-16.543l-0.004-0.003c-2.147-2.085-4.682-3.784-7.485-4.978l-0.161-0.061c-2.586-1.068-5.589-1.689-8.737-1.689-0.091 0-0.181 0.001-0.271 0.002h-111.718c-3.084 0-6.132 0.547-8.995 1.687-2.975 1.206-5.514 2.912-7.633 5.038l-0.001 0.001c-4.276 4.219-6.933 10.070-6.959 16.542v0.005c0.003 6.481 2.665 12.339 6.955 16.543l0.004 0.004c2.144 2.084 4.675 3.783 7.473 4.978l0.16 0.061c2.863 1.14 5.911 1.734 8.995 1.687h111.732zM772.678 861.231c4.596 0.047 9.193-1.361 12.998-3.91 3.817-2.548 6.865-6.272 8.634-10.496 1.734-4.236 2.188-9.053 1.28-13.545-0.908-4.503-3.235-8.727-6.505-11.962l-78.545-79.36c-4.181-4.352-10.008-7.095-16.476-7.226h-0.024c-0.086-0.001-0.188-0.002-0.29-0.002-3.152 0-6.16 0.616-8.91 1.734l0.158-0.057c-2.992 1.209-5.546 2.919-7.68 5.050v0c-2.145 2.127-3.882 4.662-5.085 7.48l-0.058 0.154c-1.119 2.646-1.769 5.722-1.769 8.95 0 0.020 0 0.040 0 0.059v-0.003c0.024 6.507 2.715 12.38 7.035 16.589l0.005 0.005 78.545 79.36c4.196 4.394 10.098 7.128 16.639 7.133h0.001l0.047 0.047zM959.953 661.050c2.769-0.047 5.551-0.582 8.145-1.629 2.583-1.047 4.992-2.56 7.040-4.422 4.045-3.68 6.774-8.743 7.437-14.438l0.010-0.108c0.326-2.769 0.14-5.585-0.5-8.262-0.675-2.676-1.815-5.283-3.409-7.599-1.609-2.314-3.537-4.272-5.747-5.863l-0.071-0.049c-2.158-1.511-4.67-2.708-7.37-3.451l-0.171-0.040-107.776-29.463c-1.933-0.587-4.155-0.924-6.456-0.924-0.944 0-1.875 0.057-2.789 0.167l0.11-0.011c-3.256 0.394-6.207 1.391-8.846 2.878l0.119-0.062c-2.741 1.563-5.051 3.554-6.921 5.909l-0.037 0.049c-1.836 2.305-3.243 5.041-4.048 8.024l-0.036 0.157c-0.531 1.84-0.836 3.954-0.836 6.139 0 1.056 0.071 2.096 0.21 3.114l-0.013-0.119c0.846 6.384 4.183 11.859 8.984 15.504l0.057 0.042c2.455 1.862 5.283 3.223 8.273 4.003l107.776 29.452c2.234 0.64 4.596 0.954 6.912 0.908l-0.047 0.093zM1000.727 422.865c3.095 0 6.132-0.547 8.995-1.687 8.608-3.555 14.562-11.871 14.592-21.582v-0.004c0 0 0 0 0 0 0-6.479-2.658-12.337-6.943-16.543l-0.004-0.003c-2.147-2.085-4.682-3.784-7.485-4.978l-0.161-0.061c-2.586-1.068-5.589-1.689-8.737-1.689-0.091 0-0.181 0.001-0.271 0.002h-111.718c-3.084 0-6.132 0.547-8.995 1.687-2.975 1.206-5.514 2.912-7.633 5.038l-0.001 0.001c-4.276 4.219-6.933 10.070-6.959 16.542v0.005c0.003 6.481 2.665 12.339 6.955 16.543l0.004 0.004c2.144 2.084 4.675 3.783 7.473 4.978l0.16 0.061c2.863 1.14 5.911 1.734 8.995 1.687h111.732zM529.455 180.364c0-9.64-7.815-17.455-17.455-17.455s-17.455 7.815-17.455 17.455v0 122.182c0 9.64 7.815 17.455 17.455 17.455s17.455-7.815 17.455-17.455v0-122.182zM512 290.909c-35.346 0-64 28.654-64 64s28.654 64 64 64v0c35.346 0 64-28.654 64-64s-28.654-64-64-64v0zM512 325.818c16.066 0 29.091 13.024 29.091 29.091s-13.024 29.091-29.091 29.091v0c-16.066 0-29.091-13.024-29.091-29.091s13.024-29.091 29.091-29.091v0zM372.364 384c-35.346 0-64 28.654-64 64s28.654 64 64 64v0c35.346 0 64-28.654 64-64s-28.654-64-64-64v0zM372.364 418.909c16.066 0 29.091 13.024 29.091 29.091s-13.024 29.091-29.091 29.091v0c-16.066 0-29.091-13.024-29.091-29.091s13.024-29.091 29.091-29.091v0zM651.636 384c-35.346 0-64 28.654-64 64s28.654 64 64 64v0c35.346 0 64-28.654 64-64s-28.654-64-64-64v0zM651.636 418.909c16.066 0 29.091 13.024 29.091 29.091s-13.024 29.091-29.091 29.091v0c-16.066 0-29.091-13.024-29.091-29.091s13.024-29.091 29.091-29.091v0zM455.331 278.028c3.843-3.222 6.269-8.024 6.272-13.393v0-80.116c0-9.64-7.815-17.455-17.455-17.455s-17.455 7.815-17.455 17.455v0 71.948l-65.513 54.668c-3.845 3.224-6.272 8.029-6.272 13.402 0 0.001 0 0.002 0 0.003v0 65.28c0 9.64 7.815 17.455 17.455 17.455s17.455-7.815 17.455-17.455v0-57.111l65.513-54.679zM570.636 278.028c-3.843-3.222-6.269-8.024-6.272-13.393v0-80.116c0-9.64 7.815-17.455 17.455-17.455s17.455 7.815 17.455 17.455v0 71.948l65.513 54.668c3.845 3.224 6.272 8.029 6.272 13.402 0 0.001 0 0.002 0 0.003v0 76.916c0 9.64-7.815 17.455-17.455 17.455s-17.455-7.815-17.455-17.455v0-68.748l-65.513-54.679z" />
<glyph unicode="&#xe909;" horiz-adv-x="1465" d="M1090.686-29.814h-958.306l-100.872 100.872v100.872h1160.050v-100.872zM81.952 928.492h1059.178v-756.563h-1059.178z" />
<glyph unicode="&#xe90a;" horiz-adv-x="1465" d="M81.952 524.989h126.094l75.65 252.188 126.094-453.931 75.65 201.744h151.316l75.65 151.316 126.094-277.409 206.060 277.425" />
<glyph unicode="&#xe90b;" horiz-adv-x="1465" d="M1141.429 799.594c-114.42 0-207.651-93.231-207.651-207.636 0-114.436 93.231-207.667 207.636-207.667 49.499 0 94.948 17.487 130.694 46.537l140.524-140.524c8.381-8.381 22.040-8.381 30.436 0 3.89 3.855 6.299 9.2 6.299 15.108s-2.409 11.252-6.297 15.106l-140.526 140.526c28.974 35.296 46.537 80.921 46.537 130.648 0 0.088 0 0.176 0 0.264v-0.014c0 114.42-93.231 207.651-207.651 207.651z" />
<glyph unicode="&#xe90c;" horiz-adv-x="1465" d="M1141.429 756.634c91.215 0 164.691-73.476 164.691-164.691s-73.476-164.691-164.691-164.691c-0.098 0-0.215 0-0.331 0-90.773 0-164.36 73.586-164.36 164.36 0 0.116 0 0.233 0 0.349v-0.018c0 91.215 73.476 164.691 164.691 164.691z" />
<glyph unicode="&#xe90d;" horiz-adv-x="1223" d="M350.115 947.805c-7.059-0.206-13.374-3.231-17.89-7.982l-0.010-0.011-273.355-279.472c-9.602-9.495-9.655-26.93 0-36.438 9.548-9.482 26.956-9.282 36.252 0.465l23.432 23.991v-290.271c0-13.392 12.128-25.587 25.454-25.587h935.471c13.325 0 25.467 12.195 25.467 25.587v290.271l23.472-23.991c9.309-9.748 26.717-10.001 36.266-0.452 9.548 9.495 9.548 26.996 0 36.438l-273.368 279.446c-9.442 9.588-26.757 9.588-36.199 0l-114.196-116.35-111.018 116.35c-9.442 9.841-27.156 9.841-36.611 0l-111.018-116.35-113.797 116.35c-4.616 4.853-11.093 7.9-18.282 7.992h-0.070zM350.115 885.833l96.695-99.541-120.566-126.338c-10.838-9.256-11.384-28.14-1.144-37.981 10.293-9.908 29.044-8.511 37.755 2.793l17.102 17.993v-259.072h-210.479v317.041l180.636 185.118zM872.953 885.833l181.049-185.118v-317.041h-210.492v258.7l16.716-17.594c9.15-9.748 26.318-10.187 36.013-0.997 9.708 9.203 10.147 26.438 0.997 36.172l-120.965 126.737 96.682 99.155zM611.541 885.035l181.049-189.506v-311.841h-97.479v146.738c0 13.392-12.142 25.587-25.48 25.587h-115.792c-13.325 0-25.454-12.195-25.454-25.587v-146.738h-97.479v312.254l180.636 189.108zM579.305 504.825h64.858v-121.151h-64.858v121.151z" />
<glyph unicode="&#xe90e;" horiz-adv-x="1223" d="M552.255 624.766c-13.339-0.745-24.815-13.591-24.071-26.996 0.745-13.378 13.525-24.922 26.863-24.177h113.398c13.325 0 25.507 12.195 25.507 25.587s-12.182 25.64-25.507 25.587h-116.204z" />
<glyph unicode="&#xe90f;" horiz-adv-x="1223" d="M1118.368 450.66h-5.226c-20.805-0.052-39.95-7.113-55.21-18.945l0.207 0.154-193.084-149.225c-26.718-20.813-59.099-35.652-94.44-41.937l-1.311-0.193-253.26-43.593c-0.877-0.134-1.889-0.211-2.919-0.211-5.236 0-10.010 1.978-13.616 5.227l0.018-0.016c-4.392 3.783-7.155 9.351-7.155 15.565 0 0.064 0 0.127 0.001 0.19v-0.010c0 9.788 6.915 18.432 16.464 20.48l194.121 41.838c39.391 8.445 67.943 43.926 67.943 84.354 0 47.583-38.553 86.309-85.91 86.309h-149.743c-43.327 0-86.561-5.346-128.492-15.892l-153.135-38.486v34.39c0 0.012 0 0.026 0 0.040 0 10.998-8.901 19.918-19.892 19.948h-198.952c-10.994-0.030-19.895-8.95-19.895-19.948 0-0.014 0-0.028 0-0.042v0.002-459.776c0-0.016 0-0.035 0-0.053 0-10.998 8.901-19.918 19.892-19.948h692.267c33.021 0 65.057 11.849 90.165 33.287l364.983 311.695c16.312 16.356 26.398 38.928 26.398 63.856 0 0.090 0 0.181 0 0.271v-0.014c0 49.977-40.481 90.657-90.218 90.657z" />
<glyph unicode="&#xe910;" horiz-adv-x="1223" d="M54.684 410.684h159.159v-419.787h-159.159zM1155.232 325.266l-363.786-310.591c-17.212-14.775-39.756-23.775-64.402-23.791h-473.411v364.225l162.789 40.88c35.669 9.33 76.62 14.69 118.821 14.695h149.773c25.401 0 46.107-20.786 46.107-46.333-0.058-22.085-15.488-40.549-36.153-45.262l-0.312-0.060-194.121-41.824c-27.794-5.958-47.955-30.986-47.955-59.525 0-17.594 7.567-34.284 20.746-45.881 10.591-9.338 24.583-15.038 39.906-15.038 3.117 0 6.179 0.236 9.169 0.691l-0.335-0.042 253.965 43.673c43.364 7.69 81.676 25.238 113.887 50.266l-0.582-0.435 193.071 149.225c8.404 6.541 19.106 10.492 30.73 10.506h5.23c27.794 0.040 50.429-22.701 50.429-50.628 0-13.551-5.266-26.292-13.565-34.736z" />
<glyph unicode="&#xe947;" glyph-name="marker" d="M512 960c-176.732 0-320-143.268-320-320 0-320 320-704 320-704s320 384 320 704c0 176.732-143.27 320-320 320zM512 448c-106.040 0-192 85.96-192 192s85.96 192 192 192 192-85.96 192-192-85.96-192-192-192z" />
<glyph unicode="&#xea8b;" glyph-name="google-plus" d="M325.8 502.6v-111.8h184.8c-7.4-48-55.8-140.6-184.8-140.6-111.2 0-202 92.2-202 205.8s90.8 205.8 202 205.8c63.4 0 105.6-27 129.8-50.2l88.4 85.2c-56.8 53-130.4 85.2-218.2 85.2-180.2-0.2-325.8-145.8-325.8-326s145.6-325.8 325.8-325.8c188 0 312.8 132.2 312.8 318.4 0 21.4-2.4 37.8-5.2 54h-307.6zM1024 512h-96v96h-96v-96h-96v-96h96v-96h96v96h96z" />
<glyph unicode="&#xea90;" glyph-name="facebook" d="M608 768h160v192h-160c-123.514 0-224-100.486-224-224v-96h-128v-192h128v-512h192v512h160l32 192h-192v96c0 17.346 14.654 32 32 32z" />
<glyph unicode="&#xea96;" glyph-name="twitter" d="M1024 733.6c-37.6-16.8-78.2-28-120.6-33 43.4 26 76.6 67.2 92.4 116.2-40.6-24-85.6-41.6-133.4-51-38.4 40.8-93 66.2-153.4 66.2-116 0-210-94-210-210 0-16.4 1.8-32.4 5.4-47.8-174.6 8.8-329.4 92.4-433 219.6-18-31-28.4-67.2-28.4-105.6 0-72.8 37-137.2 93.4-174.8-34.4 1-66.8 10.6-95.2 26.2 0-0.8 0-1.8 0-2.6 0-101.8 72.4-186.8 168.6-206-17.6-4.8-36.2-7.4-55.4-7.4-13.6 0-26.6 1.4-39.6 3.8 26.8-83.4 104.4-144.2 196.2-146-72-56.4-162.4-90-261-90-17 0-33.6 1-50.2 3 93.2-59.8 203.6-94.4 322.2-94.4 386.4 0 597.8 320.2 597.8 597.8 0 9.2-0.2 18.2-0.6 27.2 41 29.4 76.6 66.4 104.8 108.6z" />
<glyph unicode="&#xeaca;" glyph-name="linkedin2" d="M384 576h177.106v-90.782h2.532c24.64 44.194 84.958 90.782 174.842 90.782 186.946 0 221.52-116.376 221.52-267.734v-308.266h-184.61v273.278c0 65.184-1.334 149.026-96.028 149.026-96.148 0-110.82-70.986-110.82-144.292v-278.012h-184.542v576zM64 576h192v-576h-192v576zM256 736c0-53.019-42.981-96-96-96s-96 42.981-96 96c0 53.019 42.981 96 96 96s96-42.981 96-96z" />
<glyph unicode="&#xead1;" glyph-name="pinterest" d="M512 891.6c-245 0-443.6-198.6-443.6-443.6 0-188 117-348.4 282-413-3.8 35-7.4 89 1.6 127.2 8 34.6 52 220.4 52 220.4s-13.2 26.6-13.2 65.8c0 61.6 35.8 107.8 80.2 107.8 37.8 0 56.2-28.4 56.2-62.4 0-38-24.2-95-36.8-147.6-10.6-44.2 22-80.2 65.6-80.2 78.8 0 139.4 83.2 139.4 203.2 0 106.2-76.4 180.4-185.2 180.4-126.2 0-200.2-94.6-200.2-192.6 0-38.2 14.6-79 33-101.2 3.6-4.4 4.2-8.2 3-12.8-3.4-14-10.8-44.2-12.4-50.4-2-8.2-6.4-9.8-14.8-6-55.4 25.8-90 106.8-90 171.8 0 140 101.6 268.4 293 268.4 153.8 0 273.4-109.6 273.4-256.2 0-152.8-96.4-276-230.2-276-45 0-87.2 23.4-101.6 51 0 0-22.2-84.6-27.6-105.4-10-38.6-37-86.8-55.2-116.2 41.6-12.8 85.6-19.8 131.4-19.8 245 0 443.6 198.6 443.6 443.6 0 245.2-198.6 443.8-443.6 443.8z" />
</font>
</defs>
</svg>
