<svg xmlns="http://www.w3.org/2000/svg" width="23" height="17" viewBox="0 0 23 17">
    <path fill="#CCC" fill-rule="evenodd" d="M22.042 5.27H3.354V2.876c0-1.116.79-1.557 1.438-1.557.86 0 1.557.697 1.557 1.557h1.318a2.875 2.875 0 0 0-5.75 0v2.396H.958A.958.958 0 0 0 0 6.229v.48h23v-.48c0-.53-.43-.958-.958-.958zM.958 9.584c0 1.779.972 3.328 2.411 4.155l-1.224 1.224a.78.78 0 0 0 1.1 1.102L5 14.31c.245.04.495.065.751.065h11.5c.256 0 .506-.026.75-.065l1.754 1.754a.776.776 0 0 0 1.101 0 .78.78 0 0 0 0-1.102l-1.224-1.224a4.786 4.786 0 0 0 2.41-4.155V7.667H.959v1.916z"/>
</svg>
