<svg xmlns="http://www.w3.org/2000/svg" width="16" height="16" viewBox="0 0 16 16">
    <g fill="#6B7D7B" fill-rule="evenodd" stroke="#6B7D7B" stroke-width=".4">
        <path d="M8 1.076A6.932 6.932 0 0 0 1.076 8 6.931 6.931 0 0 0 8 14.924 6.931 6.931 0 0 0 14.924 8 6.931 6.931 0 0 0 8 1.076zM8 13.97a5.976 5.976 0 0 1-5.97-5.97A5.976 5.976 0 0 1 8 2.032 5.976 5.976 0 0 1 13.97 8 5.976 5.976 0 0 1 8 13.969z"/>
        <path d="M8.22 7.776V4.113a.508.508 0 0 0-1.015 0v4.17c0 .281.227.509.508.509h4.232a.508.508 0 0 0 0-1.016H8.22z"/>
    </g>
</svg>
