<svg xmlns="http://www.w3.org/2000/svg" width="13" height="13" viewBox="0 0 13 13">
    <path fill="#864C2D" fill-rule="evenodd" d="M11.734 10.488c0 .687-.56 1.246-1.247 1.246H2.512a1.247 1.247 0 0 1-1.246-1.246V5.166h1.94A3.517 3.517 0 0 0 2.946 6.5 3.559 3.559 0 0 0 6.5 10.055 3.559 3.559 0 0 0 10.055 6.5a3.505 3.505 0 0 0-.263-1.334h1.942v5.322zm-7.09-5.322A2.287 2.287 0 0 1 6.5 4.212a2.287 2.287 0 0 1 1.993 1.172c.186.33.295.71.295 1.116A2.291 2.291 0 0 1 6.5 8.787 2.29 2.29 0 0 1 4.212 6.5c0-.405.109-.785.295-1.116.043-.075.088-.148.138-.218zm6.564-3.667l.287-.002V3.7L9.3 3.708l-.008-2.204 1.916-.005zM10.487 0H2.512A2.514 2.514 0 0 0 0 2.512V10.488A2.515 2.515 0 0 0 2.512 13h7.975A2.515 2.515 0 0 0 13 10.488V2.512A2.515 2.515 0 0 0 10.487 0z"/>
</svg>
