<svg xmlns="http://www.w3.org/2000/svg" width="20" height="20" viewBox="0 0 20 20">
    <g fill="#6B7D7B" fill-rule="evenodd">
        <path d="M5.334 3.982c0 .747-.605 1.352-1.352 1.352h-2.63A1.351 1.351 0 0 1 0 3.982v-2.63C0 .605.605 0 1.352 0h2.63c.747 0 1.352.605 1.352 1.352v2.63zM5.334 11.316a1.35 1.35 0 0 1-1.352 1.35h-2.63A1.35 1.35 0 0 1 0 11.316v-2.63c0-.748.605-1.352 1.352-1.352h2.63a1.35 1.35 0 0 1 1.352 1.35v2.632zM5.334 18.648c0 .747-.605 1.352-1.352 1.352h-2.63A1.351 1.351 0 0 1 0 18.648v-2.63c0-.747.605-1.352 1.352-1.352h2.63c.747 0 1.352.605 1.352 1.352v2.63zM12.666 3.982a1.35 1.35 0 0 1-1.35 1.352h-2.63a1.351 1.351 0 0 1-1.352-1.352v-2.63A1.35 1.35 0 0 1 8.684 0h2.63c.748 0 1.352.605 1.352 1.352v2.63zM12.666 11.316a1.35 1.35 0 0 1-1.35 1.35h-2.63a1.35 1.35 0 0 1-1.352-1.35v-2.63a1.35 1.35 0 0 1 1.35-1.352h2.63a1.35 1.35 0 0 1 1.352 1.35v2.632zM12.666 18.648A1.35 1.35 0 0 1 11.316 20h-2.63a1.351 1.351 0 0 1-1.352-1.352v-2.63c0-.747.604-1.352 1.35-1.352h2.63c.748 0 1.352.605 1.352 1.352v2.63zM20 3.982c0 .747-.605 1.352-1.352 1.352h-2.63a1.351 1.351 0 0 1-1.352-1.352v-2.63c0-.747.605-1.352 1.352-1.352h2.63C19.395 0 20 .605 20 1.352v2.63zM20 11.316a1.35 1.35 0 0 1-1.352 1.35h-2.63a1.351 1.351 0 0 1-1.352-1.35v-2.63c0-.748.605-1.352 1.352-1.352h2.63c.747 0 1.352.604 1.352 1.35v2.632zM20 18.648c0 .747-.605 1.352-1.352 1.352h-2.63a1.351 1.351 0 0 1-1.352-1.352v-2.63c0-.747.605-1.352 1.352-1.352h2.63c.747 0 1.352.605 1.352 1.352v2.63z"/>
    </g>
</svg>
