<svg xmlns="http://www.w3.org/2000/svg" width="17" height="13" viewBox="0 0 17 13">
    <path fill="#6B7D7B" fill-rule="evenodd" stroke="#6B7D7B" d="M1.744 12.431h13.512c.693 0 1.244-.568 1.244-1.244V2.244C16.5 1.551 15.931 1 15.256 1H1.744C1.051 1 .5 1.569.5 2.244v8.925c0 .693.569 1.262 1.244 1.262zm4.587-5.37L1.23 11.01V3.115l5.102 3.947zm-4.587 4.623c-.053 0-.106-.018-.16-.018l5.334-4.142.604.462c.267.196.587.302.925.302.337 0 .657-.107.924-.302l.64-.498 5.387 4.178c-.054.018-.107.018-.16.018H1.744zm8.871-4.658l5.138-3.981v7.964l-5.138-3.983zM1.745 1.73h13.51c.25 0 .445.16.498.39L8.926 7.418c-.248.196-.693.196-.942 0L1.247 2.191a.516.516 0 0 1 .498-.462z"/>
</svg>
