<svg xmlns="http://www.w3.org/2000/svg" width="14" height="14" viewBox="0 0 14 14">
    <path fill="#CCC" fill-rule="evenodd" d="M10.382 13.545c.923-.171 1.719-.643 2.378-1.358.17-.201.365-.371.528-.556.372-.428.399-.897.058-1.317a3.221 3.221 0 0 0-.547-.556c-.426-.32-.853-.638-1.294-.924-.205-.136-.457-.213-.7-.267-.471-.099-.885.089-1.21.459l-.699.757c-.334.386-.709.492-1.164.36-.496-.131-.898-.419-1.285-.74A10.362 10.362 0 0 1 4.514 7.34c-.253-.359-.461-.736-.52-1.185-.067-.392.072-.729.367-.992.272-.254.544-.509.8-.77.458-.489.554-1.025.298-1.626a4.55 4.55 0 0 0-.415-.755A18.301 18.301 0 0 0 4.139.827a2.165 2.165 0 0 0-.38-.338C3.382.233 2.99.25 2.656.555c-.45.432-.932.849-1.273 1.373a4.483 4.483 0 0 0-.747 2.178c-.076 1.108.193 2.136.664 3.098.408.852.94 1.602 1.543 2.324.951 1.126 1.995 2.134 3.21 2.941.75.49 1.545.881 2.417 1.067.189.048.393.063.566.103.173 0 .306.002.44.004.305-.038.61-.036.907-.098z"/>
</svg>
