<svg xmlns="http://www.w3.org/2000/svg" width="17" height="17" viewBox="0 0 17 17">
    <path fill="#6B7D7B" fill-rule="nonzero" d="M15.406 6.375h-.531V2.721a.797.797 0 0 0-.233-.564L12.718.233A.797.797 0 0 0 12.154 0H2.922a.797.797 0 0 0-.797.797v5.578h-.531C.714 6.375 0 7.089 0 7.969v4.383c0 .22.178.398.398.398h1.727v3.453c0 .44.357.797.797.797h11.156c.44 0 .797-.357.797-.797V12.75h1.727c.22 0 .398-.178.398-.398V7.969c0-.88-.714-1.594-1.594-1.594zm-2.656 8.5h-8.5v-3.188h8.5v3.188zm-8.5-7.438V2.125h6.375v1.328a.8.8 0 0 0 .797.797h1.328v3.188h-8.5zm10.094 2.391a.797.797 0 1 1 0-1.594.797.797 0 0 1 0 1.594z"/>
</svg>
