<svg xmlns="http://www.w3.org/2000/svg" width="93" height="65" viewBox="0 0 93 65">
    <g fill="none" fill-rule="evenodd">
        <g stroke="#6B7D7B" stroke-linecap="round" stroke-linejoin="round" stroke-width="4">
            <path d="M69.233 62.83H8.403L2 56.427v-6.403h73.636v6.403zM5.202 2h67.233v48.024H5.202z"/>
            <path d="M5.202 27.613h8.004l4.802-16.008 8.004 28.814 4.802-12.806h9.605l4.802-9.605 8.004 17.609 13.08-17.61"/>
        </g>
        <path fill="#6B7D7B" stroke="#6B7D7B" stroke-width="2" d="M72.454 10.182c-7.263 0-13.181 5.918-13.181 13.18 0 7.264 5.918 13.182 13.18 13.182 3.142 0 6.027-1.11 8.296-2.954l8.92 8.92c.532.532 1.399.532 1.932 0a1.35 1.35 0 0 0 0-1.918l-8.92-8.92a13.118 13.118 0 0 0 2.954-8.309c0-7.263-5.918-13.181-13.181-13.181z"/>
        <path fill="#FFF" d="M72.454 12.909c5.79 0 10.454 4.664 10.454 10.454 0 5.79-4.664 10.454-10.454 10.454A10.433 10.433 0 0 1 62 23.363c0-5.79 4.664-10.454 10.454-10.454z"/>
    </g>
</svg>
