<svg xmlns="http://www.w3.org/2000/svg" width="88" height="88" viewBox="0 0 88 88">
    <g fill="#6B7D7B" fill-rule="evenodd">
        <path d="M44.281 20.688c14.23 0 25.809 11.578 25.809 25.82 0 8.676-4.293 16.383-10.891 21.059v10.129a1.984 1.984 0 0 1-.586 1.414 1.984 1.984 0 0 1-1.414.586H50.89v6.129a1.983 1.983 0 0 1-.586 1.414 1.984 1.984 0 0 1-1.414.586h-9.23a1.983 1.983 0 0 1-1.414-.586 1.984 1.984 0 0 1-.586-1.414v-6.129h-6.3a1.983 1.983 0 0 1-1.415-.586 1.984 1.984 0 0 1-.586-1.414V67.567c-6.598-4.676-10.898-12.383-10.898-21.059 0-14.242 11.59-25.82 25.82-25.82zm0 4c-12.07 0-21.82 9.742-21.82 21.82 0 7.691 3.977 14.438 9.984 18.32.278.18.512.43.672.723.16.293.242.625.242.957v9.191h6.301a1.983 1.983 0 0 1 1.414.586 1.984 1.984 0 0 1 .586 1.414v6.129h5.23v-6.129a1.983 1.983 0 0 1 .587-1.414 1.984 1.984 0 0 1 1.414-.586h6.308v-9.191a1.988 1.988 0 0 1 .914-1.68c6.008-3.883 9.977-10.629 9.977-18.32 0-12.082-9.742-21.82-21.809-21.82zM44.309.172c.262.004.523.058.762.164.238.105.46.254.64.441a1.981 1.981 0 0 1 .567 1.422v9.602c.004.265-.047.527-.145.773a1.943 1.943 0 0 1-.433.657 2.008 2.008 0 0 1-1.422.597 1.992 1.992 0 0 1-1.422-.597 2.11 2.11 0 0 1-.434-.657 2.015 2.015 0 0 1-.144-.773V2.199a1.985 1.985 0 0 1 .148-.781 2.03 2.03 0 0 1 .438-.66c.187-.188.414-.34.664-.438.246-.101.515-.148.781-.144V.172zM19.539 10.43c.258.008.512.066.746.172.234.105.45.254.625.441l6.75 6.82c.188.184.34.407.445.653.102.242.157.508.16.773a2.008 2.008 0 0 1-.593 1.43 1.959 1.959 0 0 1-.66.434 2.034 2.034 0 0 1-.778.144 2.025 2.025 0 0 1-1.418-.621l-6.75-6.82a1.991 1.991 0 0 1-.438-2.215 1.995 1.995 0 0 1 1.907-1.207l.004-.004zM4.949 26.395a2.02 2.02 0 0 1 1.09.281l8.32 4.801a1.994 1.994 0 0 1 .758 2.746c-.133.23-.309.43-.52.59-.21.16-.453.277-.707.344a1.969 1.969 0 0 1-.785.043 1.941 1.941 0 0 1-.742-.262l-8.32-4.8a2.038 2.038 0 0 1-.86-.946 2.036 2.036 0 0 1-.11-1.274 2.01 2.01 0 0 1 .685-1.078 1.994 1.994 0 0 1 1.195-.445h-.004zM11.602 48.199c.266 0 .527.047.773.145a2.008 2.008 0 0 1 1.254 1.855 1.992 1.992 0 0 1-.597 1.422 2.11 2.11 0 0 1-.657.433 2.015 2.015 0 0 1-.773.145H2c-.265 0-.527-.047-.773-.145a1.943 1.943 0 0 1-.656-.433 2.008 2.008 0 0 1-.598-1.422 1.992 1.992 0 0 1 .598-1.422 2.11 2.11 0 0 1 .656-.433c.246-.098.508-.149.773-.145h9.602zM66.402 8.488c.395-.004.79.117 1.117.336.328.219.59.539.742.902.149.364.188.778.11 1.164-.078.387-.278.75-.559 1.028l-6.75 6.82a2.02 2.02 0 0 1-1.418.621 2.034 2.034 0 0 1-.777-.144 1.959 1.959 0 0 1-.66-.434 2.024 2.024 0 0 1-.442-.656 2.022 2.022 0 0 1-.152-.774 2 2 0 0 1 .605-1.426l6.75-6.82a1.978 1.978 0 0 1 1.43-.613l.004-.004zM82.496 25.691c.238.004.477.05.7.14.222.09.429.22.605.38a1.989 1.989 0 0 1 .64 1.25c.028.238.012.48-.043.71-.058.23-.156.454-.293.653a2.059 2.059 0 0 1-.5.508 2.09 2.09 0 0 1-.648.3l-9.262 2.532a1.977 1.977 0 0 1-.785.066 2.039 2.039 0 0 1-.75-.242 2.032 2.032 0 0 1-.598-.512 1.922 1.922 0 0 1-.351-.703 1.972 1.972 0 0 1-.055-.785 1.992 1.992 0 0 1 .777-1.336c.211-.16.454-.277.711-.344l9.262-2.531c.192-.055.395-.082.594-.078l-.004-.008zM86 46.16c.266 0 .527.047.773.145a2.008 2.008 0 0 1 1.254 1.855 1.992 1.992 0 0 1-.597 1.422 2.11 2.11 0 0 1-.657.433 2.015 2.015 0 0 1-.773.145h-9.602c-.265 0-.527-.047-.773-.145a1.943 1.943 0 0 1-.656-.433 2.008 2.008 0 0 1-.598-1.422 1.992 1.992 0 0 1 .598-1.422 2.11 2.11 0 0 1 .656-.433c.246-.098.508-.149.773-.145H86z"/>
        <path fill-rule="nonzero" d="M45.5 67a1.5 1.5 0 0 1-3 0V56.5a1.5 1.5 0 0 1 3 0V67z"/>
        <path fill-rule="nonzero" d="M44 57.5a5.5 5.5 0 1 1 0-11 5.5 5.5 0 0 1 0 11zm0-3a2.5 2.5 0 1 0 0-5 2.5 2.5 0 0 0 0 5zM32 49.5a5.5 5.5 0 1 1 0-11 5.5 5.5 0 0 1 0 11zm0-3a2.5 2.5 0 1 0 0-5 2.5 2.5 0 0 0 0 5zM56 49.5a5.5 5.5 0 1 1 0-11 5.5 5.5 0 0 1 0 11zm0-3a2.5 2.5 0 1 0 0-5 2.5 2.5 0 0 0 0 5z"/>
        <path fill-rule="nonzero" d="M39.13 58.607a1.5 1.5 0 0 1 .539 1.151v6.885a1.5 1.5 0 0 1-3 0V60.46l-5.63-4.698a1.5 1.5 0 0 1-.539-1.152V49a1.5 1.5 0 0 1 3 0v4.908l5.63 4.699zM49.039 58.607a1.5 1.5 0 0 0-.539 1.151v6.885a1.5 1.5 0 0 0 3 0V60.46l5.63-4.698a1.5 1.5 0 0 0 .539-1.152V48a1.5 1.5 0 0 0-3 0v5.908l-5.63 4.699z"/>
    </g>
</svg>
