<svg xmlns="http://www.w3.org/2000/svg" width="92" height="77" viewBox="0 0 92 77">
    <g fill="none" fill-rule="evenodd">
        <g fill="#6B7D7B">
            <path d="M26.327.917a1.931 1.931 0 0 0-1.346.601L4.426 22.533c-.722.714-.726 2.025 0 2.74.718.713 2.027.698 2.726-.035l1.762-1.804v21.827c0 1.007.912 1.924 1.914 1.924h70.343c1.002 0 1.915-.917 1.915-1.924V23.434l1.765 1.804c.7.733 2.009.752 2.727.034.718-.714.718-2.03 0-2.74L67.022 1.519c-.71-.721-2.012-.721-2.722 0l-8.587 8.749-8.348-8.749c-.71-.74-2.042-.74-2.753 0l-8.348 8.749-8.557-8.749a1.931 1.931 0 0 0-1.376-.601h-.004zm0 4.66l7.271 7.485-9.066 9.5c-.815.696-.856 2.116-.086 2.856.774.745 2.184.64 2.839-.21l1.286-1.353v19.481H12.744v-23.84l13.583-13.92zm39.315 0l13.614 13.92v23.84H63.428V23.884l1.257 1.323c.688.733 1.979.766 2.708.075.73-.692.763-1.988.075-2.72l-9.096-9.53 7.27-7.456zm-19.657.06l13.614 14.25v23.449h-7.33V32.302c0-1.007-.913-1.924-1.916-1.924h-8.707c-1.002 0-1.914.917-1.914 1.924v11.034h-7.33v-23.48l13.583-14.22zm-2.424 28.59h4.877v9.11h-4.877v-9.11z"/>
            <path d="M41.527 25.208c-1.003.056-1.866 1.022-1.81 2.03.056 1.006 1.017 1.874 2.02 1.818h8.527c1.002 0 1.918-.917 1.918-1.924s-.916-1.928-1.918-1.924H41.526z"/>
        </g>
        <path fill="#6B7D7B" stroke="#6B7D7B" d="M84.096 38.3h-.393a6.808 6.808 0 0 0-4.136 1.413L65.048 50.934a16.316 16.316 0 0 1-7.2 3.168L38.804 57.38a1.53 1.53 0 0 1-1.242-.376 1.542 1.542 0 0 1-.538-1.184c0-.736.52-1.386 1.238-1.54l14.597-3.146c2.962-.635 5.109-3.303 5.109-6.343 0-3.578-2.899-6.49-6.46-6.49h-11.26c-3.258 0-6.509.402-9.662 1.195L19.071 42.39v-2.586a1.5 1.5 0 0 0-1.496-1.503H2.615a1.5 1.5 0 0 0-1.496 1.503v34.573a1.5 1.5 0 0 0 1.496 1.504H54.67c2.483 0 4.892-.891 6.78-2.503l27.445-23.438a6.8 6.8 0 0 0 1.985-4.821c0-3.758-3.044-6.817-6.784-6.817z"/>
        <path fill="#FFF" d="M4.112 41.306H16.08v31.566H4.112zM86.868 47.729L59.513 71.084a7.463 7.463 0 0 1-4.843 1.789H19.072V45.485l12.241-3.074a36.712 36.712 0 0 1 8.935-1.105H51.51c1.91 0 3.467 1.563 3.467 3.484a3.5 3.5 0 0 1-2.742 3.408l-14.597 3.145c-2.09.448-3.606 2.33-3.606 4.476 0 1.323.569 2.578 1.56 3.45a4.547 4.547 0 0 0 3.665 1.082l19.097-3.284a19.364 19.364 0 0 0 8.52-3.747l14.518-11.221a3.788 3.788 0 0 1 2.311-.79h.393c2.09-.003 3.792 1.707 3.792 3.807 0 1.019-.396 1.977-1.02 2.612z"/>
    </g>
</svg>
